<?xml version="1.0" encoding="utf-8"?>
<!-- Generator: Adobe Illustrator 22.1.0, SVG Export Plug-In . SVG Version: 6.00 Build 0)  -->
<svg version="1.1" id="Layer_1" xmlns="http://www.w3.org/2000/svg" xmlns:xlink="http://www.w3.org/1999/xlink" x="0px" y="0px"
	 viewBox="0 0 2271.4 484" style="enable-background:new 0 0 2271.4 484;" xml:space="preserve">
<title>mtcode-text-white</title>
<desc>Created with Sketch.</desc>
<g id="mtcode-text-white">
	<g id="Group" transform="translate(43.000000, 64.000000)">
		<path id="Fill-16" d="M956.4,356h-50V228.5c0-26-4.3-44.7-13-56.3c-10.9-14.4-29.6-21.7-56.3-21.7c-26.6,0-45.2,7.2-55.8,21.7
			c-8.7,11.5-13,30.3-13,56.3V356h-50V228.5c0-26-4.3-44.7-13-56.3c-10.9-14.4-29.7-21.7-56.3-21.7c-26.6,0-45.2,7.2-55.8,21.7
			c-8.7,11.5-13,30.3-13,56.3V356h-49.8V228.7c0-85.1,39.6-127.7,118.8-127.7c42.3,0,73.7,12.8,94.2,38.5
			c20.2-25.7,51.4-38.5,93.8-38.5c79.5,0,119.2,42.6,119.2,127.7V356z"/>
		<path id="Fill-18" d="M1122.4,356c-84.7,0-127-30.9-127-92.8V0h49.8v100.5h77.2v49.6h-77.2v113.3c0,13.6,4.3,23.6,12.9,30
			c11.8,8.7,33.2,13.1,64.2,13.1L1122.4,356L1122.4,356z"/>
		<path id="Fill-20" d="M1382.4,278.1c-13.8,52-51.5,77.9-113.1,77.9c-79.3,0-118.9-42.6-118.9-127.7c0-84.8,39.6-127.3,118.9-127.3
			c61.6,0,99.3,25.8,113.1,77.5h-52.9c-9.6-18.6-29.7-27.9-60.2-27.9c-26.6,0-45.2,7.1-55.8,21.2c-8.7,11.6-13,30.4-13,56.5
			s4.3,44.9,13,56.5c10.6,14.5,29.2,21.7,55.8,21.7c30.2,0,50.2-9.5,60.2-28.4H1382.4z"/>
		<path id="Fill-22" d="M1589.4,228.7c0-26.1-4.3-44.9-13-56.5c-10.6-14.5-29.2-21.7-55.8-21.7s-45.2,7.2-55.8,21.7
			c-8.7,11.6-13,30.4-13,56.5s4.3,44.9,13,56.5c10.6,14.2,29.2,21.2,55.8,21.2s45.2-7.1,55.8-21.2
			C1585.1,273.6,1589.4,254.8,1589.4,228.7 M1639.4,228.7c0,84.8-39.6,127.3-118.8,127.3c-79.5,0-119.2-42.4-119.2-127.3
			c0-85.2,39.7-127.7,119.2-127.7C1599.8,101,1639.4,143.6,1639.4,228.7"/>
		<path id="Fill-24" d="M1861.4,228v-77.9h-68.8c-26.6,0-45.2,7.1-55.8,21.3c-8.7,11.6-13,30.5-13,56.6s4.3,45,13,56.6
			c10.6,14.5,29.2,21.8,55.8,21.8c26.6,0,45.2-7.3,55.8-21.8C1857.1,273.1,1861.4,254.2,1861.4,228z M1911.4,228
			c0,85.3-39.6,128-118.8,128c-79.5,0-119.2-42.6-119.2-128c0-85,39.7-127.5,119.2-127.5h68.8V0h50V228z"/>
		<path id="Fill-26" d="M2134.9,204c-5.1-35.6-27.6-53.4-67.3-53.4c-40.1,0-62.7,17.8-67.8,53.4H2134.9z M2186.4,356h-118.8
			c-79.5,0-119.2-42.4-119.2-127.3c0-85.2,39.7-127.7,119.2-127.7c79.2,0,118.8,42.5,118.8,127.6v24.9h-186.6
			c5.1,35.3,27.7,52.9,67.8,52.9h118.8V356z"/>
	</g>
</g>
<g id="mtcode-logo-white">
	<g id="logo" transform="translate(10.000000, 35.000000)">
		<path id="Fill-2" d="M256.3,128.3V186l20,20.4l20-20.3v-57.8c-6.5-1.2-13.2-1.9-20-1.9C269.5,126.4,262.8,127.1,256.3,128.3"/>
		<path id="Fill-4" d="M296.8,67.6c-6.5-0.8-13.1-1.2-19.8-1.2c-6.7,0-13.3,0.5-19.8,1.2c-37.5,4.5-71.1,21.6-96.6,46.9
			c-30.2,30-48.9,71.4-48.9,117.2c0,46.8,19.6,89.1,51,119.2c20.6,19.7,46.2,34.2,74.7,41.3v-41.3c-17.8-5.9-33.7-15.7-47-28.4
			c-24-22.9-39-55.1-39-90.9c0-34.6,14.1-66,36.8-88.7c18.3-18.4,42.3-31.1,69-35.4c6.5-1,13.1-1.6,19.8-1.6
			c6.8,0,13.4,0.5,19.8,1.6c20,3.2,38.4,11.1,54,22.5l27.8-28.7C355.5,83.4,327.4,71.3,296.8,67.6"/>
		<path id="Fill-6" d="M316.3,351.3v41c27.8-6.9,52.7-20.9,72.9-39.9l-27.3-28.3C349,336.2,333.5,345.5,316.3,351.3"/>
		<path id="Fill-8" d="M276.8-7.7c-58.4,0-111.8,21.1-153.4,56L150.9,77C180.5,52.9,217,37.1,257,33.1v15.4
			c6.5-0.7,13.1-1.1,19.8-1.1c6.7,0,13.3,0.4,19.8,1.1V33c40,4,76.6,19.8,106.2,44l27.6-28.6C388.8,13.4,335.2-7.7,276.8-7.7"/>
		<path id="Fill-10" d="M481.9,107.7c-3.5-5.8-7.2-11.5-11.2-16.9c-7.8-10.8-16.5-20.9-25.9-30.2L417.2,89l-24.5,25.3l-27.6,28.4
			L296,213.9l-19.7,20.5l-1.5-1.5L256.5,214l-55.2-57c-9.5,9.6-17.2,21-22.5,33.7l70,72.3l7.8,8l18.3,18.9l1.5,1.5l19.8-20.5l7.8-8
			l84.8-87.5l28.8-29.7l25.2-26c3.8,5.7,7.3,11.5,10.6,17.6c14.9,28,23.4,60,23.4,93.9c0,57.3-24.2,109-62.9,145.5l27.5,28.5
			c46.1-43.8,75-105.5,75-174C516.3,186.1,503.7,143.8,481.9,107.7"/>
		<path id="Fill-12" d="M109.8,119.8l10.9,11.3c7.2-11.2,15.6-21.6,25.1-31l-10.6-11l-27.5-28.6c-9.4,9.4-18,19.5-25.8,30.2
			c-28.7,39.6-45.6,88.2-45.6,140.7c0,67.7,28.1,129,73.3,172.6l27.6-28.4C99.4,339.1,75.9,288,75.9,231.3
			C75.8,190.1,88.3,151.7,109.8,119.8"/>
		<path id="Fill-14" d="M296.3,420.6V300.5l-20,20.5l-20-20.5v120.1c6.6,0.7,13.2,1.1,20,1.1C283.1,421.7,289.7,421.3,296.3,420.6"
			/>
	</g>
</g>
</svg>
